<?xml version="1.0" encoding="utf-8"?>
<!-- Generator: Adobe Illustrator 21.1.0, SVG Export Plug-In . SVG Version: 6.00 Build 0)  -->
<svg version="1.1" id="Layer_1" xmlns="http://www.w3.org/2000/svg" xmlns:xlink="http://www.w3.org/1999/xlink" x="0px" y="0px"
	 viewBox="0 0 490.8 490.8" style="enable-background:new 0 0 490.8 490.8;" xml:space="preserve">
<style type="text/css">
	.st0{fill:none;}
	.st1{fill:#FFFFFF;}
	.st2{fill:#F9F9F9;}
</style>
<path class="st0" d="M143.1,249.1v53.6c0,4.4,5.4,6.4,8.3,3.1l49-56.7h167.9c14.7,0,26.6-11.9,26.6-26.6v-145
	c0-14.7-11.9-26.6-26.6-26.6H122.8c-14.7,0-26.6,11.9-26.6,26.6v145c0,14.7,11.9,26.6,26.6,26.6L143.1,249.1L143.1,249.1z"/>
<path class="st1" d="M85.4,389.8h107.7c2.9,8.6,11,14.8,20.5,14.8h63.5c9.5,0,17.6-6.2,20.5-14.8h107.8c5,0,9.1-4.1,9.1-9.1
	s-4.1-9.1-9.1-9.1H289.7c-5,0-9.1,4.1-9.1,9.1v2.2c0,1.9-1.6,3.5-3.5,3.5h-63.5c-1.9,0-3.5-1.6-3.5-3.5v-2.2c0-5-4.1-9.1-9.1-9.1
	H85.4c-5,0-9.1,4.1-9.1,9.1C76.4,385.6,80.4,389.8,85.4,389.8z"/>
<path class="st1" d="M481.7,371.5h-27v-230c0-5-4.1-9.1-9.1-9.1s-9.1,4.1-9.1,9.1v239.1c0,5,4.1,9.1,9.1,9.1h26.9v14.5
	c0,14.6-11.9,26.4-26.4,26.4H44.6c-14.6,0-26.4-11.9-26.4-26.4v-14.5h26.9c5,0,9.1-4.1,9.1-9.1V141.5c0-5-4.1-9.1-9.1-9.1
	s-9.1,4.1-9.1,9.1v230H9.1c-5,0-9.1,4.1-9.1,9.1v23.6c0,24.6,20,44.6,44.6,44.6h401.6c24.6,0,44.6-20,44.6-44.6v-23.6
	C490.7,375.6,486.7,371.5,481.7,371.5z"/>
<path class="st1" d="M284.9,111.6l-58,57.7l-20.6-20.7c-3.5-3.6-9.3-3.6-12.8,0c-3.6,3.5-3.6,9.3,0,12.8l27,27.1
	c1.8,1.8,4.1,2.7,6.4,2.7c2.3,0,4.6-0.9,6.4-2.6l64.4-64.1c3.6-3.5,3.6-9.3,0-12.8C294.1,108.1,288.4,108.1,284.9,111.6z"/>
<path class="st2" d="M368.3,42H122.8c-19.6,0-35.6,16-35.6,35.6v145c0,19.6,16,35.6,35.6,35.6H134v44.5c0,7.6,6.2,13.8,13.8,13.8
	c4,0,7.8-1.7,10.4-4.8l46.3-53.6h163.7c19.6,0,35.6-16,35.6-35.6v-145C403.9,57.8,387.9,42,368.3,42z M385.8,222.6
	c0,9.6-7.8,17.5-17.5,17.5H200.4c-2.6,0-5.1,1.1-6.9,3.1l-41.4,47.9v-42c0-5-4.1-9.1-9.1-9.1h-20.3c-9.6,0-17.5-7.8-17.5-17.5v-145
	c0-9.6,7.8-17.5,17.5-17.5h245.5c9.6,0,17.5,7.8,17.5,17.5L385.8,222.6L385.8,222.6L385.8,222.6z"/>
</svg>
