<?xml version="1.0" encoding="utf-8"?>
<!-- Generator: Adobe Illustrator 21.1.0, SVG Export Plug-In . SVG Version: 6.00 Build 0)  -->
<svg version="1.1" id="Layer_1" xmlns="http://www.w3.org/2000/svg" xmlns:xlink="http://www.w3.org/1999/xlink" x="0px" y="0px"
	 viewBox="0 0 489.8 489.8" style="enable-background:new 0 0 489.8 489.8;" xml:space="preserve">
<style type="text/css">
	.st0{fill:none;}
	.st1{fill:#FFFFFF;}
</style>
<rect x="202.6" y="83.3" class="st0" width="85" height="178.7"/>
<path class="st1" d="M9.1,467.3h471.6l0,0c5,0,9.1-4.1,9.1-9.1c0-1.7-0.5-3.4-1.3-4.7l-45.7-92.7V111.1c0-5-4.1-9.1-9.1-9.1H333.2
	c-5,0-9.1,4.1-9.1,9.1s4.1,9.1,9.1,9.1h91.5v233.7h-359V120.2h89.2c5,0,9.1-4.1,9.1-9.1s-4.1-9.1-9.1-9.1H56.5c-5,0-9.1,4.1-9.1,9.1
	v249.7L0.9,454.2c-1.4,2.8-1.2,6.1,0.4,8.8C3,465.7,6,467.3,9.1,467.3z M182.4,449.2l8-16h109.2l7.9,16H182.4z M62.1,372H428
	l38,77.1H327.6L313.3,420c-1.5-3.1-4.7-5.1-8.1-5.1H184.7c-3.4,0-6.6,1.9-8.1,5L162.1,449H23.7L62.1,372z"/>
<path class="st1" d="M296.6,55.3c0-18-14.6-32.7-32.7-32.7h-37.8c-18,0-32.7,14.6-32.7,32.7v24.8c0,0.6,0.1,1.1,0.2,1.6
	c-0.1,0.5-0.2,1.1-0.2,1.6V262c0,0.1,0,0.2,0,0.2c0,0.4,0.1,0.9,0.1,1.3c0,0.1,0,0.2,0.1,0.4c0.1,0.5,0.3,1,0.5,1.5
	c0.1,0.1,0.1,0.2,0.2,0.4c0.2,0.4,0.4,0.7,0.6,1c0.1,0.1,0.2,0.3,0.3,0.4s0.1,0.2,0.2,0.3l42.5,55.7c1.7,2.2,4.4,3.6,7.2,3.6
	s5.5-1.3,7.2-3.6l42.5-55.7c0.1-0.1,0.1-0.2,0.2-0.3c0.1-0.1,0.2-0.3,0.3-0.4c0.2-0.3,0.4-0.7,0.6-1c0.1-0.1,0.1-0.2,0.2-0.4
	c0.2-0.5,0.3-1,0.5-1.5c0-0.1,0-0.2,0.1-0.4c0.1-0.4,0.1-0.9,0.1-1.3c0-0.1,0-0.2,0-0.2V83c0-0.5-0.1-1-0.1-1.5
	c0.1-0.5,0.1-1,0.1-1.5V55.3H296.6L296.6,55.3z M211.7,89.2h24.4v163.7h-24.4V89.2z M254.2,89.2h24.4v163.7h-24.4L254.2,89.2
	L254.2,89.2z M211.7,55.3c0-8,6.5-14.5,14.5-14.5H264c8,0,14.5,6.5,14.5,14.5V71h-66.8V55.3L211.7,55.3z M245.1,302.8l-24.2-31.7
	h48.3L245.1,302.8z"/>
</svg>
