<?xml version="1.0" encoding="utf-8"?>
<!-- Generator: Adobe Illustrator 21.1.0, SVG Export Plug-In . SVG Version: 6.00 Build 0)  -->
<svg version="1.1" id="Layer_1" xmlns="http://www.w3.org/2000/svg" xmlns:xlink="http://www.w3.org/1999/xlink" x="0px" y="0px"
	 viewBox="0 0 489.4 489.4" style="enable-background:new 0 0 489.4 489.4;" xml:space="preserve">
<style type="text/css">
	.st0{fill:none;}
	.st1{fill:#FFFFFF;}
</style>
<g id="XMLID_307_">
	<path id="XMLID_308_" class="st0" d="M297.7,372.6c-70.7,29.3-151.8-4.3-181.1-75s4.3-151.8,75-181.1s151.8,4.3,181.1,75
		S368.4,343.3,297.7,372.6z"/>
</g>
<path class="st1" d="M432.9,99c1.7-1.7,2.6-4,2.6-6.4l-0.6-49.3c-0.1-5-4.2-9-9.2-9c-5,0.1-9,4.2-9,9.2l0.3,27.4l-1.3-1.3
	c-96.5-94.3-251.7-92.5-346,4c-32.7,33.5-55,75.3-64.5,120.9c-9.2,44.4-6.1,90.4,9.2,132.9c1.3,3.7,4.8,6,8.5,6c1,0,2.1-0.2,3.1-0.5
	c4.7-1.7,7.2-6.9,5.5-11.6c-29.6-82.4-9.9-172.5,51.2-235C170-3,313.7-4.7,403,82.6l1.4,1.4L377,84.3c-5,0.1-9,4.2-9,9.2
	c0.1,5,4.1,9,9.1,9h0.1l49.3-0.6C428.9,101.7,431.2,100.8,432.9,99z"/>
<path class="st1" d="M475,161.7c-1.7-4.7-6.9-7.2-11.6-5.5s-7.2,6.9-5.5,11.6c29.6,82.4,9.9,172.5-51.2,235
	c-42.3,43.3-98.9,67.5-159.4,68.2c-60.6,0.8-117.7-22.2-160.9-64.4l-1.4-1.4l27.4-0.3c5-0.1,9-4.2,9-9.2c-0.1-5-4.1-9.1-9.2-9
	l-49.3,0.6c-5,0.1-9,4.2-9,9.2l0.6,49.3c0.1,5,4.1,9,9.1,9h0.1c5-0.1,9-4.2,9-9.2l-0.3-27.4l1.4,1.4c46.1,45,106.6,69.7,170.9,69.7
	c1,0,1.9,0,2.9,0c65.3-0.8,126.5-26.9,172.2-73.6c32.7-33.5,55-75.3,64.5-120.9C493.4,250.3,490.3,204.3,475,161.7z"/>
<path class="st1" d="M244.6,96.9c-19.4,0-38.4,3.8-56.4,11.3c-36.4,15.1-64.8,43.5-79.9,79.9s-15.1,76.6,0,113
	c22.9,55.4,76.5,91.2,136.5,91.2c19.4,0,38.4-3.8,56.4-11.3c75.2-31.1,111.1-117.7,79.9-192.9C358.2,132.7,304.6,96.9,244.6,96.9z
	 M358.4,182.5h-29.9c-5.9-21.6-14.8-40-25.9-53.9C325.9,140.2,345.5,158.9,358.4,182.5z M122.9,288.4c-10.3-28.5-10.3-59.3,0-87.8
	h41.2c-2.5,13.7-3.8,28.5-3.8,43.9c0,15.3,1.5,30,4.1,43.9H122.9z M178.4,244.5c0-15.5,1.5-30.3,4.1-43.9h56.7v87.8H183
	C180.1,274.6,178.4,259.8,178.4,244.5z M257.4,118.6c22.8,5.1,41.8,29.4,52.2,64h-52.2V118.6z M239.3,118.6v63.9h-52.2
	C197.5,148,216.5,123.7,239.3,118.6z M239.3,306.6v63.8c-21.4-5.6-40.4-30.3-51.3-63.8H239.3z M257.4,370.4v-63.8h51.3
	C297.8,340.1,278.8,364.8,257.4,370.4z M257.4,288.4v-87.8h56.7c2.7,13.6,4.1,28.4,4.1,43.9c0,15.3-1.7,30.1-4.7,43.9H257.4z
	 M332.6,200.6h34c10.6,29.3,9.9,60.3-0.1,87.8h-34.3c2.7-13.9,4.1-28.6,4.1-43.9C336.3,229.1,335,214.4,332.6,200.6z M195.2,124.9
	c1-0.4,2.1-0.8,3.1-1.2c-13.1,14.4-23.5,34.7-30.1,58.9H131C145.1,156.6,167.5,136.3,195.2,124.9z M131,306.6h37.7
	c7,24.5,18.1,45.1,31.8,59.8C171.1,355.7,146.3,334.7,131,306.6z M300.4,361.5c11.7-14.2,21.2-33.1,27.5-54.9h30.4
	C345.6,329.8,325.8,349.4,300.4,361.5z"/>
</svg>
