<svg xmlns="http://www.w3.org/2000/svg" viewBox="0 0 564.18 159.32"><defs><style>.cls-1{fill:#fff;}</style></defs><title>Asset 2</title><g id="Layer_2" data-name="Layer 2"><g id="Layer_1-2" data-name="Layer 1"><g id="_Group_" data-name="&lt;Group&gt;"><path id="_Compound_Path_" data-name="&lt;Compound Path&gt;" class="cls-1" d="M0,152.57V104c0-.21,0-.42,0-.63s0-.42,0-.64v-96a6.75,6.75,0,1,1,13.5,0V67.16a55.36,55.36,0,1,1,0,72.39v13a6.75,6.75,0,1,1-13.5,0Zm13.51-49.76v1.1a41.85,41.85,0,1,0,0-1.1Z"/><path id="_Compound_Path_2" data-name="&lt;Compound Path&gt;" class="cls-1" d="M122.24,104A55.36,55.36,0,0,1,233,104a6.75,6.75,0,0,1-6.75,6.75H136.29a41.86,41.86,0,0,0,77.57,14.17,6.75,6.75,0,0,1,11.69,6.76A55.36,55.36,0,0,1,122.24,104Zm96.67-6.75a41.86,41.86,0,0,0-82.62,0Z"/><path id="_Compound_Path_3" data-name="&lt;Compound Path&gt;" class="cls-1" d="M492.82,152.57v-13.1a53.41,53.41,0,0,1-41.41,19.85c-29.78,0-54-24.83-54-55.36s24.23-55.36,54-55.36a53.41,53.41,0,0,1,41.41,19.85V55.36a6.75,6.75,0,1,1,13.5,0v97.21a6.75,6.75,0,1,1-13.5,0ZM410.91,104c0,23.08,18.17,41.86,40.51,41.86S491.92,127,491.92,104s-18.17-41.86-40.51-41.86S410.91,80.89,410.91,104Z"/><path id="_Compound_Path_4" data-name="&lt;Compound Path&gt;" class="cls-1" d="M528.65,20.93a7.09,7.09,0,1,1,7.09-7.09A7.09,7.09,0,0,1,528.65,20.93Zm-6.75,131.64V55.36a6.75,6.75,0,1,1,13.5,0v97.21a6.75,6.75,0,0,1-13.5,0Z"/><path id="_Compound_Path_5" data-name="&lt;Compound Path&gt;" class="cls-1" d="M550.68,152.57V6.75a6.75,6.75,0,0,1,13.5,0V152.57a6.75,6.75,0,0,1-13.5,0Z"/><path id="_Compound_Path_6" data-name="&lt;Compound Path&gt;" class="cls-1" d="M257.24,71.6l51,34.75s1.7,1.26,3.75,2.65a7.14,7.14,0,0,0,7.44,0l3.72-2.5,45.36-31.07c2.55-1.75,4.58-.6,4.58,2.54v62a5.56,5.56,0,0,1-5.47,5.7H263a5.9,5.9,0,0,1-5.87-5.7V70.66M381.69,49.9,320.24,92.08a8.77,8.77,0,0,1-9.21,0L248.67,49.88c-2.56-1.73-4.58-.59-4.58,2.54V153.61c0,3.14,2.43,5.05,5.51,5.05H381a4.74,4.74,0,0,0,5.11-5.05V52.42C386.09,49.28,384.25,48.16,381.69,49.9Z"/></g></g></g></svg>